<mxfile host="app.diagrams.net" agent="Mozilla/5.0 (Windows NT 10.0; Win64; x64) AppleWebKit/537.36 (KHTML, like Gecko) Chrome/134.0.0.0 Safari/537.36" version="26.1.1">
  <diagram name="第 1 页" id="KXU-_Wz0-YRuAKEjCH-3">
    <mxGraphModel dx="778" dy="387" grid="1" gridSize="10" guides="1" tooltips="1" connect="1" arrows="1" fold="1" page="1" pageScale="1" pageWidth="1169" pageHeight="827" math="0" shadow="0">
      <root>
        <mxCell id="0" />
        <mxCell id="1" parent="0" />
        <mxCell id="4mQvyWQKnsLAo2gB8wDF-9" value="&lt;font style=&quot;font-size: 16px;&quot;&gt;深度学习&lt;/font&gt;" style="text;strokeColor=none;align=center;fillColor=none;html=1;verticalAlign=middle;whiteSpace=wrap;rounded=0;" vertex="1" parent="1">
          <mxGeometry x="537.51" y="420" width="75" height="30" as="geometry" />
        </mxCell>
        <mxCell id="4mQvyWQKnsLAo2gB8wDF-1" value="" style="ellipse;whiteSpace=wrap;html=1;aspect=fixed;fillColor=none;" vertex="1" parent="1">
          <mxGeometry x="422.51" y="252.51" width="304.99" height="304.99" as="geometry" />
        </mxCell>
        <mxCell id="4mQvyWQKnsLAo2gB8wDF-2" value="" style="ellipse;whiteSpace=wrap;html=1;aspect=fixed;fillColor=none;" vertex="1" parent="1">
          <mxGeometry x="514.38" y="344.38" width="121.25" height="121.25" as="geometry" />
        </mxCell>
        <mxCell id="4mQvyWQKnsLAo2gB8wDF-3" value="" style="ellipse;whiteSpace=wrap;html=1;aspect=fixed;fillColor=none;" vertex="1" parent="1">
          <mxGeometry x="514.38" y="280.75" width="121.25" height="121.25" as="geometry" />
        </mxCell>
        <mxCell id="4mQvyWQKnsLAo2gB8wDF-4" value="" style="ellipse;whiteSpace=wrap;html=1;aspect=fixed;fillColor=none;" vertex="1" parent="1">
          <mxGeometry x="454" y="386" width="121.25" height="121.25" as="geometry" />
        </mxCell>
        <mxCell id="4mQvyWQKnsLAo2gB8wDF-5" value="" style="ellipse;whiteSpace=wrap;html=1;aspect=fixed;fillColor=none;" vertex="1" parent="1">
          <mxGeometry x="576" y="385" width="121.25" height="121.25" as="geometry" />
        </mxCell>
        <mxCell id="4mQvyWQKnsLAo2gB8wDF-6" value="&lt;font style=&quot;font-size: 16px;&quot;&gt;强化学习&lt;/font&gt;" style="text;strokeColor=none;align=center;fillColor=none;html=1;verticalAlign=middle;whiteSpace=wrap;rounded=0;" vertex="1" parent="1">
          <mxGeometry x="537.51" y="300" width="75" height="30" as="geometry" />
        </mxCell>
        <mxCell id="4mQvyWQKnsLAo2gB8wDF-7" value="&lt;font style=&quot;font-size: 16px;&quot;&gt;监督学习&lt;/font&gt;" style="text;strokeColor=none;align=center;fillColor=none;html=1;verticalAlign=middle;whiteSpace=wrap;rounded=0;" vertex="1" parent="1">
          <mxGeometry x="612.51" y="450" width="75" height="30" as="geometry" />
        </mxCell>
        <mxCell id="4mQvyWQKnsLAo2gB8wDF-8" value="&lt;font style=&quot;font-size: 16px;&quot;&gt;无监督学习&lt;/font&gt;" style="text;strokeColor=none;align=center;fillColor=none;html=1;verticalAlign=middle;whiteSpace=wrap;rounded=0;" vertex="1" parent="1">
          <mxGeometry x="461" y="450" width="87.49" height="30" as="geometry" />
        </mxCell>
        <mxCell id="4mQvyWQKnsLAo2gB8wDF-10" value="&lt;font style=&quot;font-size: 16px;&quot;&gt;机器学习&lt;/font&gt;" style="text;strokeColor=none;align=center;fillColor=none;html=1;verticalAlign=middle;whiteSpace=wrap;rounded=0;" vertex="1" parent="1">
          <mxGeometry x="537.51" y="520" width="75" height="30" as="geometry" />
        </mxCell>
        <mxCell id="4mQvyWQKnsLAo2gB8wDF-11" value="&lt;font style=&quot;font-size: 15px;&quot;&gt;深度强化学习&lt;/font&gt;" style="text;strokeColor=none;align=center;fillColor=none;html=1;verticalAlign=middle;whiteSpace=wrap;rounded=0;" vertex="1" parent="1">
          <mxGeometry x="529.51" y="359" width="92.49" height="30" as="geometry" />
        </mxCell>
      </root>
    </mxGraphModel>
  </diagram>
</mxfile>
